<svg width="18" height="19" viewBox="0 0 18 19" fill="none" xmlns="http://www.w3.org/2000/svg">
<path d="M3.01997 12.7166C2.88084 12.7166 2.74198 12.6636 2.63573 12.5574C2.42351 12.3451 2.42351 12.0011 2.63573 11.7889L11.1287 3.29595C11.3406 3.08372 11.6849 3.08372 11.8971 3.29595C12.1094 3.50818 12.1094 3.8522 11.8971 4.06443L3.40421 12.5574C3.29823 12.6633 3.1591 12.7166 3.01997 12.7166Z" fill="white" style="fill:white;fill-opacity:1;"/>
<path d="M2.17683 16.6304C2.13906 16.6304 2.10075 16.6263 2.06243 16.6181C1.76895 16.5551 1.582 16.2662 1.64504 15.9728L2.48471 12.0589C2.54776 11.7654 2.83798 11.579 3.13009 11.6415C3.42357 11.7046 3.61053 11.9934 3.54749 12.2869L2.70781 16.2007C2.65319 16.4559 2.42765 16.6304 2.17683 16.6304Z" fill="white" style="fill:white;fill-opacity:1;"/>
<path d="M6.09029 15.7908C5.95115 15.7908 5.8123 15.7378 5.70605 15.6315C5.49382 15.4193 5.49382 15.0753 5.70605 14.863L14.199 6.37038C14.4109 6.15816 14.7552 6.15816 14.9675 6.37038C15.1797 6.58261 15.1797 6.92663 14.9675 7.13886L6.4748 15.6315C6.36855 15.7378 6.22942 15.7908 6.09029 15.7908Z" fill="white" style="fill:white;fill-opacity:1;"/>
<path d="M2.17594 16.6304C1.92512 16.6304 1.69985 16.4559 1.64496 16.2008C1.58219 15.9073 1.76887 15.6184 2.06235 15.5554L5.97621 14.7157C6.26996 14.6535 6.55882 14.8399 6.62159 15.1331C6.68436 15.4266 6.49768 15.7155 6.2042 15.7785L2.29034 16.6182C2.25203 16.6266 2.21371 16.6304 2.17594 16.6304Z" fill="white" style="fill:white;fill-opacity:1;"/>
<path d="M13.0473 8.83495C12.9082 8.83495 12.769 8.78196 12.663 8.67571L9.58886 5.60152C9.37663 5.38929 9.37663 5.04527 9.58886 4.83305C9.80082 4.62082 10.1454 4.62082 10.3573 4.83305L13.4315 7.90723C13.6438 8.11946 13.6438 8.46348 13.4315 8.67571C13.3255 8.78196 13.1864 8.83495 13.0473 8.83495Z" fill="white" style="fill:white;fill-opacity:1;"/>
<path d="M14.5869 7.29811C14.4478 7.29811 14.3086 7.24512 14.2024 7.13887C13.9901 6.92664 13.9901 6.58262 14.2024 6.37012C14.5048 6.06768 14.6714 5.65817 14.6714 5.21741C14.6714 4.77664 14.5048 4.36713 14.2024 4.06469C13.8997 3.76197 13.4901 3.59539 13.0494 3.59539C12.6086 3.59539 12.1991 3.76197 11.8967 4.06469C11.6847 4.27692 11.3407 4.27719 11.1279 4.06469C10.9157 3.85246 10.9157 3.50844 11.1279 3.29594C11.6355 2.78806 12.3179 2.50844 13.0494 2.50844C13.7806 2.50844 14.4632 2.78806 14.9709 3.29594C15.4787 3.80355 15.7584 4.48588 15.7584 5.21741C15.7584 5.94893 15.4787 6.63126 14.9709 7.13887C14.8651 7.24485 14.726 7.29811 14.5869 7.29811Z" fill="white" style="fill:white;fill-opacity:1;"/>
</svg>
