<svg width="20" height="20" viewBox="0 0 20 20" fill="none" xmlns="http://www.w3.org/2000/svg">
<g clip-path="url(#clip0_289_6390)">
<path d="M19.4463 9.19297C19.2754 8.95918 15.2034 3.46855 10.0026 3.46855C4.80186 3.46855 0.729613 8.95918 0.558896 9.19275C0.397035 9.41454 0.397035 9.71536 0.558896 9.93715C0.729613 10.1709 4.80186 15.6616 10.0026 15.6616C15.2034 15.6616 19.2754 10.1709 19.4463 9.93734C19.6084 9.71559 19.6084 9.41454 19.4463 9.19297ZM10.0026 14.4002C6.17171 14.4002 2.85373 10.756 1.87154 9.56463C2.85246 8.37223 6.16349 4.72989 10.0026 4.72989C13.8333 4.72989 17.1511 8.3735 18.1337 9.56549C17.1528 10.7579 13.8418 14.4002 10.0026 14.4002Z" fill="white" style="fill:white;fill-opacity:1;"/>
<path d="M10.0028 5.78117C7.91632 5.78117 6.21875 7.47874 6.21875 9.56523C6.21875 11.6517 7.91632 13.3493 10.0028 13.3493C12.0893 13.3493 13.7869 11.6517 13.7869 9.56523C13.7869 7.47874 12.0893 5.78117 10.0028 5.78117ZM10.0028 12.0879C8.61174 12.0879 7.48013 10.9563 7.48013 9.56523C7.48013 8.1742 8.61178 7.04255 10.0028 7.04255C11.3938 7.04255 12.5255 8.1742 12.5255 9.56523C12.5255 10.9563 11.3939 12.0879 10.0028 12.0879Z" fill="white" style="fill:white;fill-opacity:1;"/>
</g>
<defs>
<clipPath id="clip0_289_6390">
<rect width="19.1304" height="19.1304" fill="white" style="fill:white;fill-opacity:1;" transform="translate(0.4375)"/>
</clipPath>
</defs>
</svg>
