<svg width="18" height="18" viewBox="0 0 18 18" fill="none" xmlns="http://www.w3.org/2000/svg">
<path d="M11.2347 9.15163L12.257 8.12928C12.3314 8.40758 12.375 8.69853 12.375 9.00003C12.375 10.8611 10.861 12.375 9 12.375C8.6985 12.375 8.40755 12.3314 8.12925 12.2571L9.15159 11.2347C10.2694 11.1585 11.1585 10.2695 11.2347 9.15163ZM17.9291 8.7268C17.8599 8.60235 16.8787 6.88293 14.9605 5.42577L14.142 6.24435C15.5406 7.27274 16.4268 8.47213 16.7757 9.00088C16.109 10.016 13.4937 13.5 9 13.5C8.32613 13.5 7.6995 13.4138 7.10986 13.2763L6.18553 14.2006C7.03533 14.4612 7.96936 14.625 9 14.625C14.8884 14.625 17.8078 9.49166 17.9291 9.27327C18.0236 9.10325 18.0236 8.89682 17.9291 8.7268ZM15.5852 3.21022L3.21019 15.5852C3.10036 15.6951 2.95636 15.75 2.8125 15.75C2.66864 15.75 2.52464 15.6951 2.41481 15.5852C2.19502 15.3654 2.19502 15.0095 2.41481 14.7898L3.98925 13.2154C1.44394 11.6788 0.150609 9.41685 0.070875 9.27327C-0.023625 9.10325 -0.023625 8.89668 0.070875 8.72666C0.192234 8.50841 3.11161 3.37504 9 3.37504C10.5225 3.37504 11.8413 3.72238 12.9687 4.23594L14.7898 2.41485C15.0096 2.19505 15.3655 2.19505 15.5852 2.41485C15.8048 2.63464 15.805 2.99057 15.5852 3.21022ZM4.82808 12.3766L6.25219 10.9525C5.85886 10.4007 5.625 9.72777 5.625 9.00003C5.625 7.139 7.13897 5.62504 9 5.62504C9.72773 5.62504 10.4006 5.85889 10.9524 6.25208L12.104 5.1005C11.1942 4.73614 10.1603 4.50004 9 4.50004C4.50633 4.50004 1.89098 7.98402 1.22442 8.99919C1.6477 9.64072 2.86439 11.2647 4.82808 12.3766ZM7.0688 10.1357L10.1357 7.06883C9.80114 6.87125 9.41597 6.75003 9 6.75003C7.75941 6.75003 6.75 7.75944 6.75 9.00003C6.75 9.416 6.87122 9.80118 7.0688 10.1357Z" fill="#ADADAD" style="fill:#ADADAD;fill:color(display-p3 0.6795 0.6795 0.6795);fill-opacity:1;"/>
</svg>
