<svg width="18" height="20" viewBox="0 0 18 20" fill="none" xmlns="http://www.w3.org/2000/svg">
<path d="M16.8052 13.7195L15.6431 12.5355C15.4806 12.3703 15.3911 12.1516 15.3911 11.9199V8.33984C15.3911 5.45 13.4618 3.00273 10.8235 2.21758C10.8474 2.09883 10.8598 1.97734 10.8598 1.85547C10.8598 0.832422 10.0274 0 9.00438 0C7.98134 0 7.14891 0.832422 7.14891 1.85547C7.14891 1.97852 7.16102 2.09961 7.18407 2.21797C4.54657 3.00352 2.61766 5.45039 2.61766 8.33984V11.9199C2.61766 12.1516 2.52821 12.3703 2.36571 12.5355L1.2036 13.7195C0.558288 14.3766 0.378601 15.3125 0.735241 16.1621C1.09149 17.0113 1.88524 17.5391 2.80633 17.5391H6.23173C6.39657 18.923 7.57665 20 9.00438 20C10.4321 20 11.6122 18.923 11.777 17.5391H15.2024C16.1235 17.5391 16.9173 17.0113 17.2735 16.1621C17.6302 15.3125 17.4505 14.3766 16.8052 13.7195ZM8.5161 1.85547C8.5161 1.58633 8.73524 1.36719 9.00438 1.36719C9.27352 1.36719 9.49266 1.58633 9.49266 1.85547C9.49266 1.89766 9.4872 1.93555 9.4786 1.9707C9.32196 1.95938 9.16376 1.95312 9.00438 1.95312C8.84501 1.95312 8.6868 1.95938 8.53016 1.9707C8.52157 1.93594 8.5161 1.89766 8.5161 1.85547ZM9.00438 18.6328C8.33251 18.6328 7.76805 18.1656 7.61805 17.5391H10.3907C10.2407 18.1656 9.67626 18.6328 9.00438 18.6328ZM16.013 15.6332C15.9599 15.7598 15.7446 16.1719 15.2024 16.1719H2.80633C2.26415 16.1719 2.04891 15.7594 1.99579 15.6332C1.94266 15.5066 1.7993 15.0645 2.17899 14.6773L3.34149 13.4934C3.75634 13.0707 3.98485 12.5121 3.98485 11.9199V8.33984C3.98485 5.57227 6.23641 3.32031 9.00438 3.32031C11.7724 3.32031 14.0239 5.57227 14.0239 8.33984V11.9199C14.0239 12.5121 14.2524 13.0707 14.6673 13.4934L15.8298 14.6773C16.2095 15.0641 16.0661 15.5066 16.013 15.6332Z" fill="white" style="fill:white;fill-opacity:1;"/>
</svg>
