<svg width="18" height="19" viewBox="0 0 18 19" fill="none" xmlns="http://www.w3.org/2000/svg">
<path d="M16.9127 5.48915C16.9127 4.4404 16.0593 3.58698 15.0105 3.58698H12.5649V2.71736C12.5649 1.99823 11.98 1.41306 11.2609 1.41306H7.34743C6.6283 1.41306 6.04314 1.99823 6.04314 2.71736V3.58698H3.59749C2.54874 3.58698 1.69531 4.4404 1.69531 5.48915C1.69531 6.24507 2.14194 6.89399 2.78227 7.20051V15.1433C2.78227 16.5628 3.93689 17.7174 5.35635 17.7174H13.2516C14.6709 17.7174 15.8257 16.5628 15.8257 15.1433V7.20051C16.4661 6.89399 16.9127 6.24507 16.9127 5.48915ZM7.1301 2.71736C7.1301 2.59741 7.22749 2.50002 7.34743 2.50002H11.2609C11.3808 2.50002 11.4779 2.59741 11.4779 2.71736V3.58698H7.1301V2.71736ZM13.2517 16.6305H5.35635C4.53635 16.6305 3.86923 15.9633 3.86923 15.1433V7.39132H14.7388V15.1433C14.7388 15.9633 14.0717 16.6305 13.2517 16.6305ZM15.0105 6.30437H3.59749C3.14798 6.30437 2.78227 5.93866 2.78227 5.48915C2.78227 5.03964 3.14798 4.67393 3.59749 4.67393H15.0105C15.46 4.67393 15.8257 5.03964 15.8257 5.48915C15.8257 5.93866 15.46 6.30437 15.0105 6.30437Z" fill="white" style="fill:white;fill-opacity:1;"/>
</svg>
