<svg width="52" height="52" viewBox="0 0 52 52" fill="none" xmlns="http://www.w3.org/2000/svg">
<path d="M20.9561 40.3353C16.697 44.8234 11.6888 48.7723 5.98446 51.9954C2.01894 43.6233 0.0131897 34.9167 0 26.0018V26.0007C0.00235064 24.1881 0.0869727 22.3839 0.253737 20.5904C0.909696 13.5578 2.82612 6.67539 5.98577 0.00228357L5.98694 0.00484184C5.98694 6.44857 6.97891 12.6676 8.82037 18.5214C9.6286 21.0881 10.6001 23.5851 11.7237 26.0008C14.1379 31.1958 17.2552 36.0126 20.9561 40.3353Z" fill="url(#paint0_linear_406_2203)" style=""/>
<path d="M51.9986 26.0007C46.5689 33.5462 39.8701 39.5975 31.985 44.0689C30.3781 44.9734 28.7372 45.8035 27.0662 46.559C20.5137 49.5184 13.4684 51.3356 5.98686 52C5.98568 51.9989 5.98568 51.9965 5.98438 51.9953C11.6886 48.7722 16.6969 44.8234 20.956 40.3352C22.8252 38.3677 24.5494 36.2964 26.125 34.1372C28.0183 31.5421 29.699 28.8204 31.1572 26.0006C32.3101 23.7731 33.325 21.4829 34.1962 19.1441C40.2969 20.511 46.2957 22.7788 51.9986 26.0007Z" fill="url(#paint1_linear_406_2203)" style=""/>
<path d="M51.9973 25.9983C51.9973 25.9995 51.996 25.9996 51.996 26.0007C46.2931 22.7788 40.2941 20.511 34.1936 19.1442C28.3022 17.8248 22.3139 17.3483 16.4057 17.6675C13.8574 17.8047 11.3236 18.0909 8.81781 18.5213C6.97634 12.6674 5.98438 6.44832 5.98438 0.00472654V0C15.375 0.834713 24.0793 3.48428 31.9839 7.93003C33.587 8.83912 35.141 9.81337 36.6453 10.855C42.539 14.9258 47.6717 19.9884 51.9973 25.9983Z" fill="url(#paint2_linear_406_2203)" style=""/>
<defs>
<linearGradient id="paint0_linear_406_2203" x1="10.3468" y1="51.8571" x2="10.6938" y2="0.0733455" gradientUnits="userSpaceOnUse">
<stop stop-color="#5C060A" style="stop-color:#5C060A;stop-color:color(display-p3 0.3608 0.0235 0.0392);stop-opacity:1;"/>
<stop offset="0.375" stop-color="#DD0C13" style="stop-color:#DD0C13;stop-color:color(display-p3 0.8667 0.0471 0.0745);stop-opacity:1;"/>
</linearGradient>
<linearGradient id="paint1_linear_406_2203" x1="49.8807" y1="22.1999" x2="4.16741" y2="48.947" gradientUnits="userSpaceOnUse">
<stop stop-color="#5C060A" style="stop-color:#5C060A;stop-color:color(display-p3 0.3608 0.0235 0.0392);stop-opacity:1;"/>
<stop offset="0.38" stop-color="#DD0C13" style="stop-color:#DD0C13;stop-color:color(display-p3 0.8667 0.0471 0.0745);stop-opacity:1;"/>
</linearGradient>
<linearGradient id="paint2_linear_406_2203" x1="3.72035" y1="3.8614" x2="48.7152" y2="30.2413" gradientUnits="userSpaceOnUse">
<stop stop-color="#5C060A" style="stop-color:#5C060A;stop-color:color(display-p3 0.3617 0.0226 0.0412);stop-opacity:1;"/>
<stop offset="0.375" stop-color="#DD0C13" style="stop-color:#DD0C13;stop-color:color(display-p3 0.8667 0.0471 0.0745);stop-opacity:1;"/>
</linearGradient>
</defs>
</svg>
