<svg width="223" height="52" viewBox="0 0 223 52" fill="none" xmlns="http://www.w3.org/2000/svg">
<path d="M68.6365 33.232C69.0845 31.7387 69.4685 30.4267 69.7885 29.296C70.1085 28.1654 70.4285 27.0027 70.7485 25.808C71.0685 24.6134 71.4098 23.2694 71.7725 21.776C72.1352 20.2827 72.5938 18.4267 73.1485 16.208C73.2552 15.8027 73.3725 15.5467 73.5005 15.44C73.6498 15.312 73.9698 15.248 74.4605 15.248C74.6738 15.248 75.0045 15.2694 75.4525 15.312C75.9218 15.3334 76.3912 15.4294 76.8605 15.6C77.3298 15.7494 77.7458 15.984 78.1085 16.304C78.4712 16.6027 78.6525 17.04 78.6525 17.616C78.6525 18.128 78.5032 18.9174 78.2045 19.984C77.9272 21.0294 77.5645 22.224 77.1165 23.568C76.6685 24.912 76.1672 26.32 75.6125 27.792C75.0792 29.2427 74.5458 30.6187 74.0125 31.92C73.4792 33.2214 72.9885 34.3627 72.5405 35.344C72.1138 36.3254 71.7938 37.008 71.5805 37.392C71.3458 37.7974 70.9298 38 70.3325 38H66.9725C66.4392 38 65.9912 37.904 65.6285 37.712C65.2872 37.4987 64.9992 37.2214 64.7645 36.88C64.5298 36.5387 64.3378 36.1547 64.1885 35.728C64.0392 35.28 63.9112 34.832 63.8045 34.384C63.0792 31.3547 62.4498 28.7307 61.9165 26.512C61.4045 24.272 60.9778 22.4054 60.6365 20.912C60.2952 19.3974 60.0392 18.2347 59.8685 17.424C59.6978 16.6134 59.6125 16.112 59.6125 15.92C59.6125 15.6854 59.7832 15.5147 60.1245 15.408C60.4658 15.28 61.0418 15.216 61.8525 15.216C62.7058 15.216 63.3992 15.3014 63.9325 15.472C64.4872 15.6427 64.9245 15.888 65.2445 16.208C65.5858 16.5067 65.8312 16.8694 65.9805 17.296C66.1512 17.7014 66.2685 18.1494 66.3325 18.64C66.3965 19.0027 66.4605 19.44 66.5245 19.952C66.5885 20.4427 66.6952 21.2 66.8445 22.224C67.0152 23.248 67.2392 24.6347 67.5165 26.384C67.7938 28.112 68.1672 30.3947 68.6365 33.232ZM83.358 38C82.6967 38 82.1527 37.936 81.726 37.808C81.3207 37.6587 80.99 37.456 80.734 37.2C80.4993 36.944 80.3287 36.6347 80.222 36.272C80.1367 35.888 80.094 35.4507 80.094 34.96C80.094 34.64 80.1047 34.192 80.126 33.616C80.1687 33.0187 80.2327 32.208 80.318 31.184C80.4033 30.1387 80.4993 28.8267 80.606 27.248C80.734 25.648 80.8833 23.6747 81.054 21.328C81.0753 20.8587 81.1287 20.5814 81.214 20.496C81.278 20.432 81.4487 20.4 81.726 20.4H82.974C83.6353 20.4 84.1687 20.464 84.574 20.592C85.0007 20.72 85.3313 20.912 85.566 21.168C85.822 21.424 85.9927 21.7334 86.078 22.096C86.1847 22.4587 86.238 22.864 86.238 23.312C86.238 23.632 86.2167 24.112 86.174 24.752C86.1313 25.392 86.0673 26.2667 85.982 27.376C85.918 28.464 85.822 29.8294 85.694 31.472C85.566 33.0934 85.406 35.056 85.214 37.36C85.1927 37.616 85.1393 37.7867 85.054 37.872C84.9687 37.9574 84.7873 38 84.51 38H83.358ZM81.086 16.624C81.086 15.7707 81.3953 15.0987 82.014 14.608C82.6327 14.1174 83.4647 13.872 84.51 13.872C85.4273 13.872 86.0887 14.064 86.494 14.448C86.9207 14.8107 87.134 15.3014 87.134 15.92C87.134 16.7094 86.8353 17.3707 86.238 17.904C85.662 18.416 84.8087 18.672 83.678 18.672C81.95 18.672 81.086 17.9894 81.086 16.624ZM88.166 38C87.9313 38 87.814 37.8827 87.814 37.648L87.91 35.92C87.9313 35.344 88.1233 34.7894 88.486 34.256C88.87 33.7227 89.4033 33.0614 90.086 32.272C90.7687 31.4827 91.6113 30.4907 92.614 29.296C93.6167 28.08 94.7793 26.5014 96.102 24.56H90.086C89.9153 24.56 89.8087 24.528 89.766 24.464C89.7447 24.3787 89.734 24.2614 89.734 24.112L89.83 22.64C89.8513 22.3627 89.8833 22.096 89.926 21.84C89.99 21.5627 90.0967 21.3174 90.246 21.104C90.4167 20.8907 90.6513 20.72 90.95 20.592C91.2487 20.464 91.6433 20.4 92.134 20.4H103.078C103.206 20.4 103.323 20.432 103.43 20.496C103.537 20.56 103.59 20.6774 103.59 20.848L103.462 22.576C103.441 23.1094 103.227 23.6747 102.822 24.272C102.758 24.3787 102.481 24.72 101.99 25.296C101.499 25.872 100.891 26.608 100.166 27.504C99.462 28.3787 98.6727 29.3707 97.798 30.48C96.9447 31.568 96.102 32.688 95.27 33.84H102.118C102.246 33.84 102.363 33.872 102.47 33.936C102.577 34 102.63 34.1174 102.63 34.288L102.502 35.856C102.459 36.496 102.278 37.0187 101.958 37.424C101.659 37.808 101.03 38 100.07 38H88.166ZM112.418 38.32C110.946 38.32 109.719 38.1174 108.738 37.712C107.778 37.2854 107.01 36.7094 106.434 35.984C105.858 35.2587 105.452 34.416 105.218 33.456C104.983 32.4747 104.866 31.4294 104.866 30.32C104.866 29.04 105.015 27.792 105.314 26.576C105.634 25.3387 106.167 24.24 106.914 23.28C107.66 22.32 108.642 21.552 109.858 20.976C111.095 20.3787 112.631 20.08 114.466 20.08C117.154 20.08 119.074 20.7414 120.226 22.064C121.399 23.3654 121.986 25.2 121.986 27.568C121.986 28.2294 121.932 28.9654 121.826 29.776C121.74 30.5654 121.559 31.3547 121.282 32.144C121.026 32.9334 120.663 33.7014 120.194 34.448C119.746 35.1947 119.17 35.856 118.466 36.432C117.762 37.008 116.908 37.4667 115.906 37.808C114.924 38.1494 113.762 38.32 112.418 38.32ZM113.922 24.336C113.111 24.336 112.46 24.5494 111.97 24.976C111.5 25.3814 111.138 25.8827 110.882 26.48C110.647 27.056 110.487 27.6747 110.402 28.336C110.338 28.976 110.306 29.52 110.306 29.968C110.306 31.376 110.53 32.4107 110.978 33.072C111.426 33.7334 112.066 34.064 112.898 34.064C113.644 34.064 114.252 33.8294 114.722 33.36C115.212 32.8907 115.586 32.3254 115.842 31.664C116.119 31.0027 116.3 30.3094 116.386 29.584C116.492 28.8587 116.546 28.2507 116.546 27.76C116.546 26.6934 116.343 25.8614 115.938 25.264C115.554 24.6454 114.882 24.336 113.922 24.336ZM135.447 20.08C137.452 20.08 138.956 20.6987 139.958 21.936C140.983 23.1734 141.495 25.1254 141.495 27.792C141.495 29.456 141.303 30.9387 140.919 32.24C140.535 33.5414 140.001 34.6507 139.319 35.568C138.636 36.464 137.836 37.1467 136.919 37.616C136.001 38.0854 135.009 38.32 133.943 38.32C132.812 38.32 131.927 38.0747 131.286 37.584C130.647 37.0934 130.145 36.4 129.783 35.504C129.719 36.272 129.665 36.8587 129.623 37.264C129.58 37.6694 129.548 37.9894 129.527 38.224C129.505 38.48 129.484 38.704 129.463 38.896C129.463 39.088 129.441 39.344 129.399 39.664C129.377 39.984 129.345 40.4214 129.303 40.976C129.26 41.5307 129.196 42.2987 129.111 43.28C129.089 43.536 129.036 43.7067 128.951 43.792C128.865 43.8774 128.684 43.92 128.407 43.92H127.255C126.593 43.92 126.049 43.8454 125.623 43.696C125.217 43.568 124.887 43.376 124.631 43.12C124.396 42.864 124.225 42.544 124.118 42.16C124.033 41.7974 123.991 41.3707 123.991 40.88C123.991 40.6667 124.023 40.0907 124.087 39.152C124.151 38.2134 124.225 37.0934 124.311 35.792C124.417 34.4694 124.524 33.0507 124.631 31.536C124.759 30.0214 124.876 28.5814 124.983 27.216C125.089 25.8294 125.175 24.6027 125.239 23.536C125.324 22.4694 125.388 21.7334 125.431 21.328C125.452 20.8587 125.505 20.5814 125.591 20.496C125.655 20.432 125.825 20.4 126.103 20.4H127.351C128.503 20.4 129.335 20.6454 129.847 21.136C130.38 21.6054 130.647 22.1707 130.647 22.832C131.137 21.8507 131.767 21.1467 132.535 20.72C133.324 20.2934 134.295 20.08 135.447 20.08ZM133.111 24.336C132.023 24.336 131.223 24.8054 130.711 25.744C130.199 26.6827 129.943 27.9627 129.943 29.584C129.943 30.1387 129.975 30.6827 130.039 31.216C130.124 31.7494 130.263 32.2294 130.455 32.656C130.647 33.0827 130.903 33.424 131.223 33.68C131.564 33.936 131.991 34.064 132.503 34.064C133.42 34.064 134.188 33.616 134.807 32.72C135.425 31.824 135.735 30.416 135.735 28.496C135.735 27.9627 135.692 27.4507 135.607 26.96C135.543 26.448 135.415 26 135.223 25.616C135.031 25.232 134.764 24.9227 134.423 24.688C134.081 24.4534 133.644 24.336 133.111 24.336ZM147.68 38.288C146.358 38.288 145.408 37.936 144.832 37.232C144.256 36.528 143.968 35.3654 143.968 33.744C143.968 33.488 143.979 33.168 144 32.784C144.043 32.4 144.086 31.9094 144.128 31.312C144.192 30.6934 144.267 29.936 144.352 29.04C144.438 28.144 144.523 27.056 144.608 25.776C144.715 24.496 144.822 22.992 144.928 21.264C145.056 19.536 145.184 17.5307 145.312 15.248C145.334 14.7787 145.387 14.5014 145.472 14.416C145.536 14.352 145.707 14.32 145.984 14.32H147.232C147.872 14.32 148.406 14.3947 148.832 14.544C149.259 14.6934 149.6 14.896 149.856 15.152C150.112 15.408 150.294 15.7067 150.4 16.048C150.507 16.368 150.56 16.7094 150.56 17.072C150.56 17.4987 150.528 18.1174 150.464 18.928C150.422 19.7174 150.358 20.6134 150.272 21.616C150.187 22.6187 150.102 23.664 150.016 24.752C149.931 25.84 149.846 26.8854 149.76 27.888C149.675 28.8694 149.6 29.7547 149.536 30.544C149.494 31.3334 149.472 31.9307 149.472 32.336C149.472 32.8907 149.568 33.2854 149.76 33.52C149.974 33.7547 150.198 33.9254 150.432 34.032C150.667 34.1174 150.88 34.1814 151.072 34.224C151.286 34.2454 151.392 34.3094 151.392 34.416C151.392 34.8854 151.339 35.3547 151.232 35.824C151.126 36.272 150.934 36.688 150.656 37.072C150.379 37.4347 149.995 37.7334 149.504 37.968C149.035 38.1814 148.427 38.288 147.68 38.288ZM152.665 34.064C152.665 32.144 153.529 30.64 155.257 29.552C156.985 28.464 159.534 27.8774 162.905 27.792C162.926 27.5574 162.937 27.3654 162.937 27.216C162.958 27.0454 162.969 26.8427 162.969 26.608C162.969 25.9254 162.841 25.3814 162.585 24.976C162.329 24.5707 161.795 24.368 160.985 24.368C160.537 24.368 160.174 24.432 159.897 24.56C159.619 24.688 159.395 24.8694 159.225 25.104C159.054 25.3174 158.915 25.584 158.809 25.904C158.702 26.224 158.606 26.576 158.521 26.96C158.478 27.152 158.382 27.28 158.233 27.344C158.083 27.3867 157.849 27.408 157.529 27.408C155.353 27.408 154.265 26.5867 154.265 24.944C154.265 24.2827 154.414 23.6534 154.713 23.056C155.033 22.4587 155.491 21.9467 156.089 21.52C156.707 21.072 157.475 20.72 158.393 20.464C159.31 20.208 160.377 20.08 161.593 20.08C163.961 20.08 165.678 20.5707 166.745 21.552C167.811 22.5334 168.345 23.92 168.345 25.712C168.345 25.9467 168.313 26.3734 168.249 26.992C168.206 27.5894 168.142 28.2294 168.057 28.912C167.993 29.5734 167.929 30.2027 167.865 30.8C167.822 31.3974 167.801 31.8134 167.801 32.048C167.801 32.5814 167.897 32.9654 168.089 33.2C168.281 33.4134 168.494 33.5627 168.729 33.648C168.985 33.7334 169.209 33.7974 169.401 33.84C169.593 33.8827 169.689 33.9894 169.689 34.16C169.689 34.6294 169.625 35.1094 169.497 35.6C169.369 36.0907 169.155 36.5387 168.857 36.944C168.579 37.3494 168.185 37.68 167.673 37.936C167.182 38.192 166.574 38.32 165.849 38.32C164.825 38.32 164.057 38.0747 163.545 37.584C163.033 37.0934 162.691 36.4107 162.521 35.536C162.009 36.2827 161.337 36.9334 160.505 37.488C159.694 38.0427 158.627 38.32 157.305 38.32C156.665 38.32 156.057 38.2454 155.481 38.096C154.926 37.9467 154.435 37.7014 154.009 37.36C153.603 37.0187 153.273 36.5814 153.017 36.048C152.782 35.4934 152.665 34.832 152.665 34.064ZM162.617 30.416C162.062 30.416 161.518 30.4587 160.985 30.544C160.451 30.6294 159.971 30.768 159.545 30.96C159.139 31.1307 158.809 31.3654 158.553 31.664C158.297 31.9627 158.169 32.3254 158.169 32.752C158.169 33.2427 158.318 33.584 158.617 33.776C158.937 33.968 159.278 34.064 159.641 34.064C159.982 34.064 160.323 33.9894 160.665 33.84C161.006 33.6907 161.305 33.4667 161.561 33.168C161.838 32.848 162.073 32.464 162.265 32.016C162.457 31.568 162.574 31.0347 162.617 30.416ZM177.768 23.344C177.768 23.8347 177.736 24.4214 177.672 25.104C177.608 25.7654 177.533 26.4374 177.448 27.12C177.384 27.7814 177.32 28.4107 177.256 29.008C177.192 29.584 177.16 30.032 177.16 30.352C177.16 31.1627 177.352 31.7707 177.736 32.176C178.141 32.56 178.632 32.752 179.208 32.752C180.21 32.752 181.01 32.2294 181.608 31.184C182.205 30.1387 182.578 28.752 182.728 27.024L183.24 21.04C183.261 20.8054 183.336 20.6454 183.464 20.56C183.613 20.4534 183.773 20.4 183.944 20.4H185.096C185.544 20.4 185.96 20.4427 186.344 20.528C186.749 20.592 187.101 20.7307 187.4 20.944C187.698 21.136 187.933 21.4027 188.104 21.744C188.274 22.0854 188.36 22.5227 188.36 23.056C188.36 23.2694 188.338 23.6747 188.296 24.272C188.274 24.848 188.221 25.6907 188.136 26.8C188.072 27.888 187.976 29.2747 187.848 30.96C187.72 32.624 187.57 34.6614 187.4 37.072C187.293 38.48 186.973 39.6427 186.44 40.56C185.928 41.4987 185.277 42.2347 184.488 42.768C183.698 43.3227 182.813 43.7067 181.832 43.92C180.85 44.1334 179.848 44.24 178.824 44.24C177.736 44.24 176.733 44.144 175.816 43.952C174.92 43.76 174.141 43.4934 173.48 43.152C172.818 42.8107 172.296 42.416 171.912 41.968C171.549 41.52 171.368 41.04 171.368 40.528C171.368 40.1227 171.453 39.7707 171.624 39.472C171.816 39.1734 172.061 38.928 172.36 38.736C172.658 38.544 173 38.3947 173.384 38.288C173.789 38.2027 174.205 38.16 174.632 38.16C174.845 38.16 174.994 38.2667 175.08 38.48C175.186 38.6934 175.336 38.928 175.528 39.184C175.741 39.4614 176.072 39.7067 176.52 39.92C176.968 40.1334 177.64 40.24 178.536 40.24C179.325 40.24 179.965 40.048 180.456 39.664C180.946 39.28 181.32 38.7894 181.576 38.192C181.853 37.5947 182.034 36.944 182.12 36.24C182.205 35.536 182.248 34.864 182.248 34.224C181.906 34.8214 181.522 35.312 181.096 35.696C180.69 36.0587 180.264 36.3467 179.816 36.56C179.368 36.752 178.92 36.88 178.472 36.944C178.024 37.008 177.597 37.04 177.192 37.04C176.402 37.04 175.677 36.9334 175.016 36.72C174.376 36.5067 173.821 36.1654 173.352 35.696C172.882 35.2054 172.52 34.576 172.264 33.808C172.008 33.04 171.88 32.112 171.88 31.024C171.88 30.6187 171.901 30.0854 171.944 29.424C171.986 28.7414 172.04 27.984 172.104 27.152C172.168 26.2987 172.232 25.3814 172.296 24.4C172.381 23.4187 172.466 22.416 172.552 21.392C172.594 20.7307 172.893 20.4 173.448 20.4H174.472C175.154 20.4 175.709 20.464 176.136 20.592C176.562 20.72 176.893 20.912 177.128 21.168C177.384 21.4027 177.554 21.712 177.64 22.096C177.725 22.4587 177.768 22.8747 177.768 23.344ZM198.579 38.32C197.64 38.32 196.702 38.2027 195.763 37.968C194.846 37.7334 194.014 37.328 193.267 36.752C192.542 36.176 191.944 35.408 191.475 34.448C191.006 33.488 190.771 32.2827 190.771 30.832C190.771 30.2987 190.814 29.6587 190.899 28.912C190.984 28.1654 191.144 27.3974 191.379 26.608C191.635 25.8187 191.976 25.04 192.403 24.272C192.851 23.4827 193.427 22.7787 194.131 22.16C194.835 21.5414 195.688 21.04 196.691 20.656C197.694 20.272 198.888 20.08 200.275 20.08C201.384 20.08 202.323 20.208 203.091 20.464C203.859 20.72 204.478 21.072 204.947 21.52C205.416 21.9467 205.758 22.448 205.971 23.024C206.184 23.6 206.291 24.2187 206.291 24.88C206.291 25.8614 206.088 26.6934 205.683 27.376C205.299 28.0587 204.787 28.6347 204.147 29.104C203.528 29.552 202.835 29.904 202.067 30.16C201.299 30.416 200.542 30.6187 199.795 30.768C199.048 30.896 198.355 30.9814 197.715 31.024C197.096 31.0454 196.616 31.056 196.275 31.056C196.275 31.4614 196.328 31.8667 196.435 32.272C196.563 32.656 196.744 32.9974 196.979 33.296C197.214 33.5947 197.523 33.84 197.907 34.032C198.291 34.224 198.76 34.32 199.315 34.32C199.87 34.32 200.296 34.2347 200.595 34.064C200.915 33.872 201.171 33.6694 201.363 33.456C201.555 33.2214 201.715 33.0187 201.843 32.848C201.992 32.656 202.184 32.56 202.419 32.56C202.526 32.56 202.707 32.592 202.963 32.656C203.24 32.6987 203.518 32.8054 203.795 32.976C204.072 33.1467 204.318 33.3814 204.531 33.68C204.744 33.9787 204.851 34.3627 204.851 34.832C204.851 35.4507 204.659 35.984 204.275 36.432C203.891 36.88 203.39 37.2427 202.771 37.52C202.174 37.7974 201.502 38 200.755 38.128C200.008 38.256 199.283 38.32 198.579 38.32ZM199.187 24.336C198.718 24.336 198.312 24.4747 197.971 24.752C197.651 25.008 197.374 25.3387 197.139 25.744C196.926 26.1494 196.755 26.5974 196.627 27.088C196.52 27.5787 196.435 28.048 196.371 28.496C197.694 28.4747 198.76 28.2507 199.571 27.824C200.403 27.3974 200.819 26.7894 200.819 26C200.819 25.5734 200.68 25.1894 200.403 24.848C200.147 24.5067 199.742 24.336 199.187 24.336ZM218.554 28.048C218.426 28.048 218.277 28.048 218.106 28.048C217.957 28.0267 217.808 28.0054 217.658 27.984C217.509 27.9414 217.381 27.8987 217.274 27.856C217.168 27.792 217.114 27.7174 217.114 27.632C217.114 27.3547 217.125 27.0987 217.146 26.864C217.168 26.6294 217.178 26.384 217.178 26.128C217.178 25.6587 217.114 25.2747 216.986 24.976C216.858 24.6774 216.602 24.528 216.218 24.528C215.621 24.528 215.12 24.9227 214.714 25.712C214.33 26.48 214.085 27.6427 213.978 29.2C213.936 29.8827 213.872 30.6614 213.786 31.536C213.722 32.3894 213.658 33.2214 213.594 34.032C213.53 34.8214 213.477 35.5254 213.434 36.144C213.392 36.7627 213.37 37.168 213.37 37.36C213.37 37.5734 213.296 37.7334 213.146 37.84C212.997 37.9467 212.837 38 212.666 38H211.514C210.853 38 210.309 37.936 209.882 37.808C209.477 37.6587 209.146 37.456 208.89 37.2C208.656 36.944 208.485 36.6347 208.378 36.272C208.293 35.888 208.25 35.4507 208.25 34.96C208.25 34.64 208.261 34.192 208.282 33.616C208.325 33.0187 208.389 32.208 208.474 31.184C208.56 30.1387 208.656 28.8267 208.762 27.248C208.89 25.648 209.04 23.6747 209.21 21.328C209.253 20.7094 209.477 20.4 209.882 20.4H211.13C211.728 20.4 212.229 20.464 212.634 20.592C213.04 20.72 213.37 20.9014 213.626 21.136C213.882 21.3494 214.064 21.6054 214.17 21.904C214.298 22.2027 214.384 22.512 214.426 22.832C214.682 22.3414 214.981 21.9254 215.322 21.584C215.685 21.2214 216.058 20.9334 216.442 20.72C216.826 20.4854 217.221 20.3254 217.626 20.24C218.032 20.1334 218.405 20.08 218.746 20.08C219.152 20.08 219.557 20.1547 219.962 20.304C220.389 20.4534 220.773 20.6774 221.114 20.976C221.456 21.2747 221.722 21.6587 221.914 22.128C222.128 22.5974 222.234 23.152 222.234 23.792C222.234 24.368 222.149 24.912 221.978 25.424C221.808 25.936 221.562 26.3947 221.242 26.8C220.922 27.184 220.528 27.4934 220.058 27.728C219.61 27.9414 219.109 28.048 218.554 28.048Z" fill="white" style="fill:white;fill-opacity:1;"/>
<path d="M20.9561 40.3353C16.697 44.8234 11.6888 48.7723 5.98446 51.9954C2.01894 43.6233 0.0131897 34.9167 0 26.0018V26.0007C0.00235064 24.1881 0.0869727 22.3839 0.253737 20.5904C0.909696 13.5578 2.82612 6.67539 5.98577 0.00228357L5.98694 0.00484184C5.98694 6.44857 6.97891 12.6676 8.82037 18.5214C9.6286 21.0881 10.6001 23.5851 11.7237 26.0008C14.1379 31.1958 17.2552 36.0126 20.9561 40.3353Z" fill="url(#paint0_linear_406_2193)" style=""/>
<path d="M51.9986 26.0007C46.5689 33.5462 39.8701 39.5975 31.985 44.0689C30.3781 44.9734 28.7372 45.8035 27.0662 46.559C20.5137 49.5184 13.4684 51.3356 5.98686 52C5.98568 51.9989 5.98568 51.9965 5.98438 51.9953C11.6886 48.7722 16.6969 44.8234 20.956 40.3352C22.8252 38.3677 24.5494 36.2964 26.125 34.1372C28.0183 31.5421 29.699 28.8204 31.1572 26.0006C32.3101 23.7731 33.325 21.4829 34.1962 19.1441C40.2969 20.511 46.2957 22.7788 51.9986 26.0007Z" fill="url(#paint1_linear_406_2193)" style=""/>
<path d="M51.9973 25.9983C51.9973 25.9995 51.996 25.9996 51.996 26.0007C46.2931 22.7788 40.2941 20.511 34.1936 19.1442C28.3022 17.8248 22.3139 17.3483 16.4057 17.6675C13.8574 17.8047 11.3236 18.0909 8.81781 18.5213C6.97634 12.6674 5.98438 6.44832 5.98438 0.00472654V0C15.375 0.834713 24.0793 3.48428 31.9839 7.93003C33.587 8.83912 35.141 9.81337 36.6453 10.855C42.539 14.9258 47.6717 19.9884 51.9973 25.9983Z" fill="url(#paint2_linear_406_2193)" style=""/>
<defs>
<linearGradient id="paint0_linear_406_2193" x1="10.3468" y1="51.8571" x2="10.6938" y2="0.0733455" gradientUnits="userSpaceOnUse">
<stop stop-color="#5C060A" style="stop-color:#5C060A;stop-color:color(display-p3 0.3608 0.0235 0.0392);stop-opacity:1;"/>
<stop offset="0.375" stop-color="#DD0C13" style="stop-color:#DD0C13;stop-color:color(display-p3 0.8667 0.0471 0.0745);stop-opacity:1;"/>
</linearGradient>
<linearGradient id="paint1_linear_406_2193" x1="49.8807" y1="22.1999" x2="4.16741" y2="48.947" gradientUnits="userSpaceOnUse">
<stop stop-color="#5C060A" style="stop-color:#5C060A;stop-color:color(display-p3 0.3608 0.0235 0.0392);stop-opacity:1;"/>
<stop offset="0.38" stop-color="#DD0C13" style="stop-color:#DD0C13;stop-color:color(display-p3 0.8667 0.0471 0.0745);stop-opacity:1;"/>
</linearGradient>
<linearGradient id="paint2_linear_406_2193" x1="3.72035" y1="3.8614" x2="48.7152" y2="30.2413" gradientUnits="userSpaceOnUse">
<stop stop-color="#5C060A" style="stop-color:#5C060A;stop-color:color(display-p3 0.3617 0.0226 0.0412);stop-opacity:1;"/>
<stop offset="0.375" stop-color="#DD0C13" style="stop-color:#DD0C13;stop-color:color(display-p3 0.8667 0.0471 0.0745);stop-opacity:1;"/>
</linearGradient>
</defs>
</svg>
